<svg width="24" height="24" viewBox="0 0 24 24" fill="none" xmlns="http://www.w3.org/2000/svg">
<path d="M12.4997 4C14.8089 4 16.8859 4.53592 18.3757 5.38801C19.8751 6.24554 20.7226 7.3844 20.7226 8.5757C20.7226 9.767 19.8751 10.9059 18.3757 11.7634C16.8859 12.6155 14.8089 13.1514 12.4997 13.1514C10.1904 13.1514 8.11341 12.6155 6.62357 11.7634C5.12421 10.9059 4.27669 9.767 4.27669 8.5757C4.27669 7.3844 5.12421 6.24554 6.62357 5.38801C8.11341 4.53592 10.1904 4 12.4997 4Z" fill="#502FFF" stroke="#DAF727"/>
<path fill-rule="evenodd" clip-rule="evenodd" d="M4.00167 10.5H4V12.0887C4 12.7408 4.21986 13.3864 4.64703 13.9888C5.07419 14.5911 5.70029 15.1384 6.48959 15.5995C7.27888 16.0605 8.21591 16.4263 9.24718 16.6758C10.2784 16.9254 11.3837 17.0537 12.5 17.0537C13.6162 17.0537 14.7215 16.9254 15.7528 16.6758C16.784 16.4263 17.7211 16.0605 18.5104 15.5995C19.2997 15.1384 19.9258 14.5911 20.353 13.9888C20.7801 13.3864 21 12.7408 21 12.0887V10.5H20.9983C20.9078 13.1962 17.1376 15.1519 12.5 15.1519C7.86237 15.1519 4.09222 13.1962 4.00167 10.5Z" fill="#D6D1FA"/>
<path fill-rule="evenodd" clip-rule="evenodd" d="M4.00167 14.01H4V15.5987C4 16.2508 4.21986 16.8964 4.64703 17.4988C5.07419 18.1012 5.70029 18.6485 6.48959 19.1096C7.27888 19.5706 8.21591 19.9363 9.24718 20.1858C10.2784 20.4354 11.3837 20.5638 12.5 20.5638C13.6162 20.5638 14.7215 20.4354 15.7528 20.1858C16.784 19.9363 17.7211 19.5706 18.5104 19.1096C19.2997 18.6485 19.9258 18.1012 20.353 17.4988C20.7801 16.8964 21 16.2508 21 15.5987V14.01H20.9983C20.9078 16.7062 17.1376 18.6619 12.5 18.6619C7.86237 18.6619 4.09222 16.7062 4.00167 14.01Z" fill="#502FFF"/>
<g opacity="0.8" filter="url(#filter0_f_359_2534)">
<path d="M11.9084 10.9833L12.1328 11.4669C12.1576 11.5203 12.2235 11.5549 12.2799 11.5441L12.6887 11.4659C12.7158 11.4608 12.737 11.4456 12.7479 11.4238C12.7586 11.402 12.7579 11.3753 12.746 11.3496L12.5216 10.866L12.726 10.8269L12.9504 11.3105C12.9752 11.3639 13.0411 11.3985 13.0975 11.3877L13.5063 11.3096C13.5334 11.3044 13.5547 11.2893 13.5654 11.2674C13.5762 11.2456 13.5755 11.2189 13.5636 11.1933L13.3393 10.7097L13.3735 10.7031C14.1879 10.5473 14.5846 10.0363 14.2638 9.34491C13.9941 8.76375 13.4352 8.5248 12.9322 8.5717L12.9164 8.53765C13.2694 8.36819 13.4295 8.02921 13.2112 7.55872C12.9362 6.96594 12.2991 6.69601 11.5817 6.8332L11.5441 6.84039L11.3197 6.35674C11.3078 6.33107 11.2856 6.30853 11.258 6.29406C11.2304 6.27958 11.1997 6.27436 11.1726 6.27954L10.7638 6.35772C10.7367 6.3629 10.7154 6.37806 10.7047 6.39987C10.6939 6.42167 10.6946 6.44834 10.7065 6.47399L10.9309 6.95765L10.6966 7.00244L10.4722 6.51878C10.4603 6.49313 10.4381 6.47058 10.4106 6.45611C10.383 6.44163 10.3522 6.43642 10.3251 6.4416L9.94618 6.51406C9.91907 6.51925 9.8978 6.53442 9.88706 6.55622C9.8763 6.57802 9.87695 6.60468 9.88886 6.63034L10.1133 7.11399L9.29843 7.27445C9.27132 7.27963 9.25005 7.29479 9.23931 7.31659C9.22855 7.33841 9.22921 7.36507 9.24111 7.39072L9.41865 7.77339C9.44325 7.82639 9.50849 7.86152 9.56491 7.85073L9.87266 7.78978C9.95387 7.7748 10.0456 7.79079 10.1279 7.83425C10.2102 7.87771 10.2763 7.9451 10.3119 8.02173L11.3001 10.1518C11.3358 10.2288 11.3378 10.3087 11.3055 10.3741C11.2733 10.4395 11.2094 10.485 11.1281 10.5005L10.8243 10.5634C10.7972 10.5685 10.7759 10.5837 10.7652 10.6055C10.7544 10.6272 10.7551 10.6539 10.767 10.6796L10.9465 11.0665C10.9713 11.1199 11.0372 11.1545 11.0936 11.1437L11.9084 10.9833ZM10.9636 7.5778L11.6663 7.44342C12.0367 7.3726 12.3436 7.52369 12.4897 7.83865C12.646 8.17566 12.4991 8.4106 11.9669 8.51238L11.4436 8.61244L10.9636 7.5778ZM11.6908 9.14524L12.443 9.0014C12.9078 8.91251 13.265 9.08854 13.4344 9.4538C13.6055 9.82254 13.4388 10.0638 12.8125 10.1835L12.2247 10.296L11.691 9.14563L11.6908 9.14524Z" fill="#5235E8" fill-opacity="0.64"/>
</g>
<path d="M10.0467 7.32174L10.047 7.32168L10.3545 7.26079C10.4236 7.24813 10.5016 7.26176 10.5716 7.29873C10.6417 7.33574 10.698 7.39316 10.7283 7.45843L11.7166 9.58846C11.747 9.65402 11.7486 9.72216 11.7212 9.77789C11.6937 9.83361 11.6393 9.87236 11.5701 9.8856L11.5694 9.88575L11.2663 9.94834C11.2661 9.94837 11.266 9.94839 11.2659 9.94841C11.2269 9.95596 11.1963 9.97783 11.1809 10.0092C11.1653 10.0407 11.1663 10.0792 11.1835 10.1163L11.363 10.5032C11.3988 10.5804 11.4939 10.6303 11.5754 10.6147L11.5757 10.6146L12.3449 10.4632L12.5493 10.9037C12.5851 10.9808 12.6802 11.0307 12.7617 11.0151L13.1706 10.9369C13.2096 10.9295 13.2404 10.9076 13.2559 10.876C13.2715 10.8446 13.2705 10.806 13.2533 10.769L13.0489 10.3284L13.1624 10.3066L13.3669 10.7472C13.4026 10.8244 13.4978 10.8744 13.5793 10.8588L13.9881 10.7806C14.0273 10.7731 14.058 10.7512 14.0735 10.7197C14.089 10.6882 14.0881 10.6497 14.0709 10.6126L13.8665 10.1719C14.2755 10.0918 14.5843 9.92212 14.7501 9.68113C14.9184 9.43688 14.9374 9.12257 14.7711 8.76424C14.6316 8.46345 14.4153 8.24804 14.1659 8.11451C13.9578 8.00316 13.7296 7.95024 13.508 7.95012C13.6409 7.865 13.739 7.75083 13.7877 7.60963C13.848 7.43494 13.8317 7.22209 13.7185 6.97804C13.5756 6.67001 13.3367 6.44283 13.0381 6.31168C12.7429 6.18203 12.3949 6.14865 12.0314 6.21675L11.827 5.77606C11.8098 5.73901 11.7777 5.70644 11.7379 5.68554C11.6981 5.66462 11.6537 5.65708 11.6145 5.66456L11.2057 5.74274C11.1666 5.75023 11.1358 5.77213 11.1203 5.80363C11.1048 5.83512 11.1057 5.87364 11.1229 5.9107L11.3274 6.35136L11.184 6.37878L10.9795 5.93812C10.9623 5.90106 10.9303 5.8685 10.8905 5.84758C10.8506 5.82668 10.8062 5.81914 10.7671 5.82662L10.3881 5.89909C10.349 5.90658 10.3182 5.92848 10.3027 5.95997C10.2872 5.99147 10.2881 6.02999 10.3053 6.06705L10.5099 6.50794L9.74036 6.65948L9.76031 6.70247L9.74012 6.65952L9.74023 6.65949C9.70114 6.66701 9.67048 6.68889 9.65497 6.72036C9.63943 6.75186 9.64038 6.79037 9.65757 6.82742L9.8351 7.21009C9.87045 7.28628 9.96465 7.33744 10.0467 7.32174ZM11.9309 7.98878L11.4908 7.04013L12.1481 6.91443C12.3253 6.88056 12.4814 6.90079 12.6079 6.96192C12.7337 7.02273 12.8376 7.12759 12.9061 7.27535C12.9795 7.43352 12.9796 7.56157 12.9051 7.66268C12.829 7.76597 12.6705 7.84736 12.4088 7.8974L11.9309 7.98878ZM12.218 8.60756L12.9248 8.47241C13.15 8.42936 13.3426 8.45168 13.4962 8.52325C13.6487 8.59434 13.7707 8.71768 13.8508 8.8905C13.9315 9.06431 13.9302 9.20112 13.842 9.3098C13.7513 9.42142 13.5643 9.50931 13.2545 9.56856L12.712 9.6723L12.218 8.60756Z" fill="white" stroke="#8D79F1" stroke-width="0.25"/>
<defs>
<filter id="filter0_f_359_2534" x="5.23169" y="2.27759" width="13.1433" height="13.2685" filterUnits="userSpaceOnUse" color-interpolation-filters="sRGB">
<feFlood flood-opacity="0" result="BackgroundImageFix"/>
<feBlend mode="normal" in="SourceGraphic" in2="BackgroundImageFix" result="shape"/>
<feGaussianBlur stdDeviation="2" result="effect1_foregroundBlur_359_2534"/>
</filter>
</defs>
</svg>
