<svg width="73" height="65" viewBox="0 0 73 65" fill="none" xmlns="http://www.w3.org/2000/svg">
<g clip-path="url(#clip0_359_2591)">
<path d="M0.299988 2.01172C0.299988 0.90715 1.19542 0.0117188 2.29999 0.0117188H22.3C23.4046 0.0117188 24.3 0.90715 24.3 2.01172V43.5117C24.3 43.7878 24.0761 44.0117 23.8 44.0117H2.29999C1.19542 44.0117 0.299988 43.1163 0.299988 42.0117V2.01172Z" fill="#7BA0FF"/>
<path d="M24.3 44.5117C24.3 44.2356 24.5239 44.0117 24.8 44.0117H47.8C48.0761 44.0117 48.3 44.2356 48.3 44.5117V62.0117C48.3 63.1163 47.4046 64.0117 46.3 64.0117H26.3C25.1954 64.0117 24.3 63.1163 24.3 62.0117V44.5117Z" fill="#7BA0FF"/>
<path d="M50.3 8.01172C49.1954 8.01172 48.3 8.90715 48.3 10.0117V43.5117C48.3 43.7878 48.5239 44.0117 48.8 44.0117H70.3C71.4046 44.0117 72.3 43.1163 72.3 42.0117V10.0117C72.3 8.90715 71.4046 8.01172 70.3 8.01172H50.3Z" fill="#7BA0FF"/>
</g>
<defs>
<clipPath id="clip0_359_2591">
<rect width="72" height="64" fill="white" transform="translate(0.299988 0.0117188)"/>
</clipPath>
</defs>
</svg>
