<svg width="24" height="25" viewBox="0 0 24 25" fill="none" xmlns="http://www.w3.org/2000/svg">
<path d="M21 12.84C21 18.24 17.049 21.84 12.1746 21.84C8.2128 21.84 5.016 19.7385 3.9 16.44M3 12.84C3 7.43997 6.951 3.83997 11.8254 3.83997C15.7881 3.83997 18.984 5.94147 20.1 9.23997" stroke="#DAF727" stroke-width="2" stroke-linecap="round" stroke-linejoin="round"/>
<path d="M7.5 17.34L3.9 16.44L3 20.04M16.5 8.33995L20.1 9.23995L21 5.63995" stroke="#DAF727" stroke-width="2" stroke-linecap="round" stroke-linejoin="round"/>
<path d="M21 12.84C21 18.24 17.049 21.84 12.1746 21.84C8.2128 21.84 5.016 19.7385 3.9 16.44" stroke="#D6D1FA" stroke-width="2" stroke-linecap="round" stroke-linejoin="round"/>
<path d="M7.5 17.3399L3.9 16.4399L3 20.0399" stroke="#D6D1FA" stroke-width="2" stroke-linecap="round" stroke-linejoin="round"/>
<circle cx="12.0002" cy="12.84" r="5.83333" fill="#DAF727"/>
<circle cx="12" cy="12.84" r="4.75" fill="#502FFF" stroke="white" stroke-width="0.5"/>
<path d="M12.3505 14.4448H11.6401C11.3329 14.4448 11.0834 14.1952 11.0834 13.8881H10.2194C10.2194 14.656 10.8146 15.2705 11.5634 15.3089L11.5633 16.0384H12.4272V15.3088C13.176 15.2703 13.7712 14.6367 13.7712 13.8879C13.7712 13.1007 13.1184 12.4479 12.3312 12.4479H11.6208C11.3136 12.4479 11.0641 12.1983 11.0641 11.8912C11.0641 11.584 11.3137 11.3345 11.6208 11.3345H12.3312C12.6384 11.3345 12.8879 11.5841 12.8879 11.8912H13.7519C13.7519 11.1233 13.1567 10.5088 12.4079 10.4704V9.74072H11.544V10.4704C10.7952 10.5088 10.2 11.1424 10.2 11.8912C10.2 12.6784 10.8528 13.3312 11.64 13.3312H12.3504C12.6576 13.3312 12.9071 13.5808 12.9071 13.8879C12.9074 14.1952 12.6577 14.4448 12.3505 14.4448H12.3505Z" fill="white"/>
</svg>
