<svg width="24" height="24" viewBox="0 0 24 24" xmlns="http://www.w3.org/2000/svg">
<path fill-rule="evenodd" clip-rule="evenodd" d="M4.73242 10.4911C4.73242 6.90124 7.64257 3.99109 11.2324 3.99109C14.8223 3.99109 17.7324 6.90124 17.7324 10.4911C17.7324 14.0809 14.8223 16.9911 11.2324 16.9911C7.64257 16.9911 4.73242 14.0809 4.73242 10.4911ZM11.2324 1.99109C6.538 1.99109 2.73242 5.79667 2.73242 10.4911C2.73242 15.1855 6.538 18.9911 11.2324 18.9911C13.2193 18.9911 15.0469 18.3094 16.4942 17.1671L16.7753 17.4482L20.5253 21.1982L21.2324 21.9053L22.6466 20.4911L21.9395 19.784L18.1895 16.034L17.9084 15.7529C19.0507 14.3056 19.7324 12.478 19.7324 10.4911C19.7324 5.79667 15.9268 1.99109 11.2324 1.99109Z"/>
</svg>
