<svg width="55" height="55" viewBox="0 0 55 55" fill="none" xmlns="http://www.w3.org/2000/svg">
<g clip-path="url(#clip0_359_2601)">
<path d="M21.7633 11.0185C24.0482 4.07087 25.1906 0.597046 27.3 0.597046C29.4095 0.597046 30.552 4.07087 32.8369 11.0185L34.5545 16.2414C35.0057 17.613 35.2312 18.2989 35.7221 18.7897C36.213 19.2806 36.8988 19.5062 38.2704 19.9573L43.4933 21.675C50.441 23.9599 53.9148 25.1024 53.9148 27.2117C53.9148 29.3212 50.441 30.4637 43.4933 32.7486L38.2704 34.4663C36.8988 34.9174 36.213 35.143 35.7221 35.6338C35.2312 36.1247 35.0057 36.8105 34.5545 38.1822L32.8369 43.405C30.552 50.3527 29.4095 53.8265 27.3 53.8265C25.1906 53.8265 24.0482 50.3527 21.7633 43.405L20.0456 38.1822C19.5944 36.8105 19.3689 36.1247 18.878 35.6338C18.3872 35.143 17.7013 34.9174 16.3297 34.4663L11.1068 32.7486C4.15915 30.4637 0.685333 29.3212 0.685333 27.2117C0.685333 25.1024 4.15915 23.9599 11.1068 21.675L16.3297 19.9573C17.7013 19.5062 18.3872 19.2806 18.878 18.7897C19.3689 18.2989 19.5944 17.613 20.0456 16.2414L21.7633 11.0185Z" fill="#9F66FF"/>
</g>
<defs>
<clipPath id="clip0_359_2601">
<rect width="54.4" height="54.4" fill="white" transform="translate(0.100006 0.0117188)"/>
</clipPath>
</defs>
</svg>
