<svg width="24" height="24" viewBox="0 0 24 24" fill="none" xmlns="http://www.w3.org/2000/svg">
<path d="M3.50006 14.2L6.30006 14.2L6.30006 19.2V20.2H3.50006L3.50006 14.2Z" fill="#502FFF" stroke="white"/>
<path d="M10.0001 14.3C8.88203 14.3 6.50006 15.1 6.50006 15.1V19.5C6.50006 19.5 8.02182 19.7069 9.50006 20C11.5169 20.4 14.2351 20.8825 15.0001 20.5C17.0001 19.5 20.0001 17 20.0001 17C20.0001 17 21.0528 16.4054 20.6001 15.5C20.1473 14.5946 19.0001 15 19.0001 15L14.9613 16.2036C14.6805 15.7092 13.5654 15.3241 12.5001 15C11.4009 14.6656 10.505 14.3 10.0001 14.3Z" fill="#502FFF"/>
<path d="M10.0001 16.6C10.0001 16.6 10.8397 16.7799 11.834 16.985C14.6798 17.5722 14.716 17.3952 15.0001 16.6C15.0499 16.4604 15.0323 16.3285 14.9613 16.2036M14.9613 16.2036C14.6805 15.7092 13.5654 15.3241 12.5001 15C11.4009 14.6656 10.505 14.3 10.0001 14.3C8.88203 14.3 6.50006 15.1 6.50006 15.1V19.5C6.50006 19.5 8.02182 19.7069 9.50006 20C11.5169 20.3999 14.2351 20.8825 15.0001 20.5C17.0001 19.5 20.0001 17 20.0001 17C20.0001 17 21.0528 16.4054 20.6001 15.5C20.1473 14.5946 19.0001 15 19.0001 15L14.9613 16.2036Z" stroke="white"/>
<path d="M15.4609 13.0608C18.2258 13.0608 20.4913 10.8144 20.4913 8.0304C20.4913 5.26557 18.2449 3 15.4609 3C12.6961 3 10.4305 5.2464 10.4305 8.0304C10.4304 10.8144 12.6768 13.0608 15.4609 13.0608ZM15.4609 3.9984C17.6882 3.9984 19.5121 5.80323 19.5121 8.0496C19.5121 10.2768 17.6882 12.1008 15.4609 12.1008C13.2337 12.1008 11.4097 10.296 11.4097 8.0496C11.4097 5.8032 13.2337 3.9984 15.4609 3.9984Z" fill="#2A292E"/>
<circle cx="15.0003" cy="7.99999" r="5.83333" fill="#DAF727"/>
<circle cx="15.0001" cy="8" r="4.75" fill="#502FFF" stroke="white" stroke-width="0.5"/>
<path d="M15.3506 9.60483H14.6402C14.333 9.60483 14.0835 9.35518 14.0835 9.04809H13.2195C13.2195 9.81603 13.8147 10.4305 14.5635 10.4689L14.5633 11.1984H15.4273V10.4688C16.1761 10.4304 16.7713 9.79672 16.7713 9.04796C16.7713 8.26072 16.1185 7.60796 15.3313 7.60796H14.6209C14.3137 7.60796 14.0642 7.35832 14.0642 7.05123C14.0642 6.74399 14.3138 6.49449 14.6209 6.49449H15.3313C15.6385 6.49449 15.888 6.74414 15.888 7.05123H16.752C16.752 6.28329 16.1568 5.66883 15.408 5.63039V4.90076H14.544V5.63039C13.7952 5.66883 13.2001 6.30246 13.2001 7.05123C13.2001 7.83846 13.8528 8.49123 14.6401 8.49123H15.3504C15.6577 8.49123 15.9072 8.74087 15.9072 9.04796C15.9074 9.35519 15.6578 9.60483 15.3506 9.60483H15.3506Z" fill="white"/>
</svg>
