<svg width="24" height="24" viewBox="0 0 24 24" xmlns="http://www.w3.org/2000/svg">
<g clip-path="url(#clip0_4268_154854)">
<path d="M12.6032 12.4027C12.6032 15.3233 10.2291 17.6916 7.29908 17.6916C6.60361 17.6925 5.91477 17.5564 5.27188 17.2911C4.62899 17.0258 4.04465 16.6365 3.55222 16.1454C3.0598 15.6543 2.66892 15.071 2.40192 14.4288C2.13492 13.7866 1.99702 13.0981 1.99609 12.4027C1.99609 9.48085 4.37022 7.11378 7.29908 7.11378C7.99466 7.11269 8.68363 7.24865 9.32665 7.51387C9.96967 7.77909 10.5542 8.16838 11.0467 8.65952C11.5393 9.15065 11.9302 9.734 12.1973 10.3763C12.4644 11.0185 12.6023 11.7071 12.6032 12.4027ZM18.421 12.4027C18.421 15.1529 17.234 17.3813 15.7695 17.3813C14.3051 17.3813 13.118 15.1517 13.118 12.4027C13.118 9.65244 14.3051 7.42406 15.7695 7.42406C17.234 7.42406 18.421 9.65362 18.421 12.4027ZM20.801 12.4027C20.801 14.8661 20.3838 16.863 19.8678 16.863C19.353 16.863 18.9358 14.8649 18.9358 12.4027C18.9358 9.93922 19.353 7.94237 19.869 7.94237C20.3838 7.94237 20.801 9.93922 20.801 12.4027Z"/>
</g>
<defs>
<clipPath id="clip0_4268_154854">
<rect width="18.8049" height="18.8049" transform="translate(1.99805 3)"/>
</clipPath>
</defs>
</svg>
