<svg width="25" height="24" viewBox="0 0 25 24" fill="none" xmlns="http://www.w3.org/2000/svg">
<g clip-path="url(#clip0_359_3067)">
<g clip-path="url(#clip1_359_3067)">
<path d="M18.7222 0H6.27778C3.0868 0 0.5 2.5868 0.5 5.77778V18.2222C0.5 21.4132 3.0868 24 6.27778 24H18.7222C21.9132 24 24.5 21.4132 24.5 18.2222V5.77778C24.5 2.5868 21.9132 0 18.7222 0Z" fill="#AB9FF2"/>
<path fill-rule="evenodd" clip-rule="evenodd" d="M10.8392 15.5384C9.83451 17.078 8.15091 19.0263 5.91065 19.0263C4.85162 19.0263 3.83331 18.5903 3.83331 16.6965C3.83331 11.8735 10.4183 4.40729 16.5282 4.40729C20.004 4.40729 21.3889 6.81882 21.3889 9.55733C21.3889 13.0724 19.1079 17.0916 16.8404 17.0916C16.1208 17.0916 15.7678 16.6965 15.7678 16.0698C15.7678 15.9063 15.795 15.7292 15.8493 15.5384C15.0754 16.86 13.5819 18.0862 12.1834 18.0862C11.1651 18.0862 10.6492 17.4459 10.6492 16.5466C10.6492 16.2197 10.717 15.879 10.8392 15.5384ZM19.0947 9.46211C19.0947 10.2601 18.6239 10.6591 18.0972 10.6591C17.5626 10.6591 17.0997 10.2601 17.0997 9.46211C17.0997 8.66413 17.5626 8.26515 18.0972 8.26515C18.6239 8.26515 19.0947 8.66413 19.0947 9.46211ZM16.1023 9.46213C16.1023 10.2601 15.6314 10.6591 15.1048 10.6591C14.5701 10.6591 14.1073 10.2601 14.1073 9.46213C14.1073 8.66413 14.5701 8.26515 15.1048 8.26515C15.6314 8.26515 16.1023 8.66413 16.1023 9.46213Z" fill="#FFFDF8"/>
</g>
</g>
<defs>
<clipPath id="clip0_359_3067">
<rect width="24" height="24" fill="white" transform="translate(0.5)"/>
</clipPath>
<clipPath id="clip1_359_3067">
<rect width="24" height="24" fill="white" transform="translate(0.5)"/>
</clipPath>
</defs> 
</svg>
