<svg width="32" height="32" viewBox="0 0 32 32" fill="none" xmlns="http://www.w3.org/2000/svg">
<path d="M6.51217 14.61C12.4189 11.7878 16.3567 9.92701 18.3256 9.02806C23.9537 6.46107 25.1217 6.01524 25.8846 6.00013C26.0524 5.99718 26.4259 6.04267 26.6696 6.25881C26.8722 6.4411 26.9292 6.68763 26.9577 6.86072C26.983 7.03363 27.0178 7.42773 26.9893 7.73536C26.6855 11.2492 25.3655 19.7762 24.6944 23.712C24.4127 25.3772 23.8524 25.9356 23.3111 25.9901C22.1336 26.1088 21.2409 25.1373 20.1014 24.3182C18.3192 23.0359 17.3126 22.238 15.5811 20.987C13.5806 19.5412 14.8784 18.7464 16.018 17.4478C16.3155 17.1079 21.5005 11.936 21.5986 11.4669C21.6113 11.4083 21.6239 11.1895 21.5036 11.0742C21.3865 10.9586 21.2124 10.9982 21.0858 11.0294C20.9054 11.0739 18.0597 13.1391 12.5391 17.2249C11.732 17.8339 11.0007 18.1308 10.3423 18.1151C9.62062 18.0981 8.22783 17.6665 7.19273 17.2978C5.92656 16.8454 4.91679 16.6061 5.00542 15.8377C5.04974 15.4377 5.55304 15.0284 6.51217 14.61Z" fill="#502FFF"/>
</svg>
